# xmcd
#
# Track frame offsets:
#	150
#	13581
#	31025
#	44502
#	59171
#	74939
#	87623
#	99359
#	113216
#	129789
#	144223
#	158490
#	172841
#
# Disc length: 2454 seconds
#
# Revision: 1
# Processed by: cddbd v1.5.2PL0 Copyright (c) Steve Scherf et al.
# Submitted via: audiograbber 1.83.01
#
DISCID=a909940d
DTITLE=Percy Sledge - Volume 2  d1
DYEAR=2009
DGENRE=Country
TTITLE0=My special prayer
TTITLE1=Try a little tenderness
TTITLE2=I've neen loving you too long
TTITLE3=Warm and tender love
TTITLE4=Bring it on home to me
TTITLE5=Behind closed doors
TTITLE6=Tell it like it is
TTITLE7=Sunshine
TTITLE8=A whiter shade of pale
TTITLE9=I'll be your everything
TTITLE10=Hard to be friends
TTITLE11=Love among people
TTITLE12=Baby help me
EXTD=
EXTT0=
EXTT1=
EXTT2=
EXTT3=
EXTT4=
EXTT5=
EXTT6=
EXTT7=
EXTT8=
EXTT9=
EXTT10=
EXTT11=
EXTT12=
PLAYORDER=
